<svg width="10" height="10" viewBox="0 0 10 10" fill="none" xmlns="http://www.w3.org/2000/svg">
<g filter="url(#filter0_i_1142_1466)">
<path d="M4.90039 1.37551C5.25907 1.37572 5.54959 1.66625 5.5498 2.02493V4.69499C5.5498 4.86902 5.5498 4.95604 5.58137 5.01929C5.587 5.03058 5.58978 5.0355 5.59654 5.04615C5.63443 5.10583 5.73217 5.16471 5.92764 5.28247C6.45024 5.59733 6.79974 6.17008 6.79981 6.82473C6.79981 7.81884 5.99411 8.62454 5 8.62454C4.00589 8.62453 3.2002 7.81884 3.2002 6.82473C3.20027 6.13235 3.59122 5.53158 4.16443 5.23063C4.26808 5.17622 4.3199 5.14901 4.34581 5.12673C4.40215 5.07828 4.4258 5.03914 4.44251 4.96674C4.4502 4.93344 4.4502 4.88919 4.4502 4.80067C4.4502 4.68417 4.4502 4.62592 4.43423 4.57896C4.40425 4.49074 4.33497 4.42146 4.24674 4.39147C4.19979 4.37551 4.14154 4.37551 4.02504 4.37551H4C3.69651 4.37551 3.45062 4.1291 3.4502 3.82571C3.4502 3.52195 3.69624 3.27493 4 3.27493H4.05029C4.1432 3.27493 4.18965 3.27493 4.22777 3.26472C4.33135 3.237 4.41227 3.15608 4.43999 3.0525C4.4502 3.01438 4.4502 2.96793 4.4502 2.87502C4.4502 2.78212 4.4502 2.73566 4.43999 2.69755C4.41227 2.59396 4.33135 2.51305 4.22777 2.48532C4.18965 2.47512 4.1432 2.47512 4.05029 2.47512H4C3.69637 2.47512 3.45041 2.22889 3.4502 1.92532C3.4502 1.62156 3.69624 1.37551 4 1.37551H4.90039ZM5 6.01516C4.55272 6.01517 4.19053 6.37747 4.19043 6.82473C4.19043 7.27208 4.55266 7.63527 5 7.63528C5.44735 7.63528 5.80957 7.27208 5.80957 6.82473C5.80947 6.37747 5.44729 6.01516 5 6.01516Z" fill="white"/>
</g>
<defs>
<filter id="filter0_i_1142_1466" x="0" y="0" width="10" height="10" filterUnits="userSpaceOnUse" color-interpolation-filters="sRGB">
<feFlood flood-opacity="0" result="BackgroundImageFix"/>
<feBlend mode="normal" in="SourceGraphic" in2="BackgroundImageFix" result="shape"/>
<feColorMatrix in="SourceAlpha" type="matrix" values="0 0 0 0 0 0 0 0 0 0 0 0 0 0 0 0 0 0 127 0" result="hardAlpha"/>
<feOffset/>
<feGaussianBlur stdDeviation="1"/>
<feComposite in2="hardAlpha" operator="arithmetic" k2="-1" k3="1"/>
<feColorMatrix type="matrix" values="0 0 0 0 0.942 0 0 0 0 0.94 0 0 0 0 1 0 0 0 0.1 0"/>
<feBlend mode="hard-light" in2="shape" result="effect1_innerShadow_1142_1466"/>
</filter>
</defs>
</svg>
