<svg width="10" height="10" viewBox="0 0 10 10" fill="none" xmlns="http://www.w3.org/2000/svg">
<g filter="url(#filter0_i_1142_1119)">
<path d="M2.51497 3.37358C3.56802 1.28211 7.81437 2.00664 7.81477 4.17339C7.81477 5.48144 6.54418 4.17985 5.81477 5.27397C4.90322 6.64193 6.95106 7.87343 4.91536 7.87358C2.87891 7.87358 1.52745 5.3351 2.51497 3.37358ZM4.31575 5.57378C3.92915 5.57378 3.61555 5.88737 3.61555 6.27397C3.61571 6.66044 3.92925 6.97417 4.31575 6.97417C4.70205 6.97392 5.01482 6.66029 5.01497 6.27397C5.01497 5.88752 4.70214 5.57402 4.31575 5.57378ZM3.31477 4.17339C2.9835 4.1735 2.71516 4.44267 2.71516 4.77397C2.71531 5.10515 2.98359 5.37347 3.31477 5.37358C3.64605 5.37358 3.91521 5.10522 3.91536 4.77397C3.91536 4.4426 3.64614 4.17339 3.31477 4.17339ZM6.11458 2.97417C5.78342 2.97441 5.51497 3.24256 5.51497 3.57378C5.51501 3.90496 5.78344 4.17314 6.11458 4.17339C6.44592 4.17339 6.71512 3.90511 6.71516 3.57378C6.71516 3.24241 6.44595 2.97417 6.11458 2.97417ZM4.31477 2.77397C3.98357 2.77412 3.71523 3.04236 3.71516 3.37358C3.71516 3.70486 3.98353 3.97402 4.31477 3.97417C4.64614 3.97417 4.91536 3.70495 4.91536 3.37358C4.91529 3.04227 4.6461 2.77397 4.31477 2.77397Z" fill="white"/>
</g>
<defs>
<filter id="filter0_i_1142_1119" x="0" y="0" width="10" height="10" filterUnits="userSpaceOnUse" color-interpolation-filters="sRGB">
<feFlood flood-opacity="0" result="BackgroundImageFix"/>
<feBlend mode="normal" in="SourceGraphic" in2="BackgroundImageFix" result="shape"/>
<feColorMatrix in="SourceAlpha" type="matrix" values="0 0 0 0 0 0 0 0 0 0 0 0 0 0 0 0 0 0 127 0" result="hardAlpha"/>
<feOffset/>
<feGaussianBlur stdDeviation="1"/>
<feComposite in2="hardAlpha" operator="arithmetic" k2="-1" k3="1"/>
<feColorMatrix type="matrix" values="0 0 0 0 0.942 0 0 0 0 0.94 0 0 0 0 1 0 0 0 0.1 0"/>
<feBlend mode="hard-light" in2="shape" result="effect1_innerShadow_1142_1119"/>
</filter>
</defs>
</svg>
