<svg width="10" height="10" viewBox="0 0 10 10" fill="none" xmlns="http://www.w3.org/2000/svg">
<g filter="url(#filter0_i_1191_5295)">
<path d="M2.99951 6.46375C2.99951 6.69712 2.99951 6.8138 3.04671 6.90214C3.08401 6.97196 3.1412 7.02915 3.21102 7.06645C3.29936 7.11365 3.41604 7.11365 3.64941 7.11365H6.34961C6.58298 7.11365 6.69967 7.11365 6.788 7.06645C6.85783 7.02915 6.91501 6.97196 6.95232 6.90214C6.99951 6.8138 6.99951 6.69712 6.99951 6.46375V6.41394C6.99951 6.22747 6.99951 6.13424 7.02999 6.0607C7.07059 5.96274 7.14841 5.88492 7.24637 5.84432C7.31991 5.81384 7.41314 5.81384 7.59961 5.81384C7.78608 5.81384 7.87931 5.81384 7.95285 5.84432C8.05081 5.88492 8.12863 5.96274 8.16923 6.0607C8.19971 6.13424 8.19971 6.22747 8.19971 6.41394V7.51404C8.19934 7.95551 7.84145 8.31378 7.3999 8.31384H2.6001C2.1585 8.31384 1.80066 7.95555 1.80029 7.51404V6.41345C1.80029 6.22744 1.80029 6.13444 1.83062 6.06105C1.87123 5.96281 1.94926 5.88478 2.0475 5.84417C2.12089 5.81384 2.21389 5.81384 2.3999 5.81384C2.58591 5.81384 2.67892 5.81384 2.7523 5.84417C2.85054 5.88478 2.92858 5.96281 2.96918 6.06105C2.99951 6.13444 2.99951 6.22744 2.99951 6.41345V6.46375ZM5.04834 1.68884C5.29103 1.70969 5.48051 1.92869 5.85889 2.3656L6.42627 3.02087C6.90963 3.57901 7.15122 3.858 7.14111 4.09607C7.13445 4.25228 7.06736 4.39992 6.95361 4.5072C6.87136 4.58471 6.74503 4.62513 6.55614 4.64623C6.19705 4.68635 6.01751 4.7064 5.91947 4.80109C5.90441 4.81564 5.89337 4.82798 5.88058 4.84457C5.79736 4.9525 5.79736 5.11124 5.79736 5.42871V5.4906C5.7971 5.82175 5.52799 6.09021 5.19678 6.09021H4.79736C4.46615 6.09021 4.19704 5.82175 4.19678 5.4906V5.4287C4.19678 5.11133 4.19678 4.95264 4.11362 4.84472C4.10084 4.82813 4.08982 4.81581 4.07476 4.80125C3.97679 4.70657 3.7972 4.68641 3.43802 4.64608C3.2497 4.62494 3.12365 4.58452 3.0415 4.5072C2.92775 4.39992 2.85968 4.25229 2.85303 4.09607C2.84292 3.85798 3.08541 3.5791 3.56885 3.02087L4.13525 2.3656C4.51359 1.92873 4.70319 1.70981 4.9458 1.68884C4.97982 1.68592 5.01432 1.68595 5.04834 1.68884Z" fill="white"/>
</g>
<defs>
<filter id="filter0_i_1191_5295" x="0" y="0" width="10" height="10" filterUnits="userSpaceOnUse" color-interpolation-filters="sRGB">
<feFlood flood-opacity="0" result="BackgroundImageFix"/>
<feBlend mode="normal" in="SourceGraphic" in2="BackgroundImageFix" result="shape"/>
<feColorMatrix in="SourceAlpha" type="matrix" values="0 0 0 0 0 0 0 0 0 0 0 0 0 0 0 0 0 0 127 0" result="hardAlpha"/>
<feOffset/>
<feGaussianBlur stdDeviation="1"/>
<feComposite in2="hardAlpha" operator="arithmetic" k2="-1" k3="1"/>
<feColorMatrix type="matrix" values="0 0 0 0 0.942 0 0 0 0 0.94 0 0 0 0 1 0 0 0 0.1 0"/>
<feBlend mode="hard-light" in2="shape" result="effect1_innerShadow_1191_5295"/>
</filter>
</defs>
</svg>
