<svg width="10" height="10" viewBox="0 0 10 10" fill="none" xmlns="http://www.w3.org/2000/svg">
<g filter="url(#filter0_i_1142_1589)">
<path d="M6.09961 2.1001C6.94547 2.1001 7.36889 2.09983 7.64941 2.33936C7.68918 2.37332 7.72579 2.41093 7.75977 2.45068C7.99936 2.73121 8 3.15454 8 4.00049V6.00049C8 6.84617 7.99932 7.26883 7.75977 7.54932C7.72577 7.58911 7.68921 7.62665 7.64941 7.66064C7.36889 7.90024 6.94556 7.8999 6.09961 7.8999H4.30039C4.07948 7.8999 3.90039 7.72082 3.90039 7.4999V2.5001C3.90039 2.27918 4.07948 2.1001 4.30039 2.1001H6.09961ZM3.09961 7.45964C3.09961 7.69031 2.90166 7.88536 2.67886 7.82565C2.54797 7.79057 2.44175 7.73845 2.35059 7.66064C2.31075 7.62662 2.27328 7.58915 2.23926 7.54932C1.99988 7.26883 2 6.84596 2 6.00049V4.00049C2 3.15464 1.99975 2.73121 2.23926 2.45068C2.27328 2.41085 2.31075 2.37338 2.35059 2.33936C2.44176 2.26156 2.54802 2.20916 2.67894 2.17382C2.90163 2.11371 3.09961 2.30871 3.09961 2.53938V7.45964ZM5.09961 4.3999C4.82365 4.40003 4.59973 4.62394 4.59961 4.8999C4.59961 5.17597 4.82358 5.39977 5.09961 5.3999H6.09961C6.37575 5.3999 6.59961 5.17604 6.59961 4.8999C6.59949 4.62386 6.37568 4.3999 6.09961 4.3999H5.09961ZM5.09961 2.8999C4.82367 2.90006 4.59971 3.12394 4.59961 3.3999C4.59961 3.67594 4.8236 3.89974 5.09961 3.8999H6.90039C7.17631 3.89964 7.40039 3.67588 7.40039 3.3999C7.40029 3.124 7.17625 2.90016 6.90039 2.8999H5.09961Z" fill="white"/>
</g>
<defs>
<filter id="filter0_i_1142_1589" x="0" y="0" width="10" height="10" filterUnits="userSpaceOnUse" color-interpolation-filters="sRGB">
<feFlood flood-opacity="0" result="BackgroundImageFix"/>
<feBlend mode="normal" in="SourceGraphic" in2="BackgroundImageFix" result="shape"/>
<feColorMatrix in="SourceAlpha" type="matrix" values="0 0 0 0 0 0 0 0 0 0 0 0 0 0 0 0 0 0 127 0" result="hardAlpha"/>
<feOffset/>
<feGaussianBlur stdDeviation="1"/>
<feComposite in2="hardAlpha" operator="arithmetic" k2="-1" k3="1"/>
<feColorMatrix type="matrix" values="0 0 0 0 0.942 0 0 0 0 0.94 0 0 0 0 1 0 0 0 0.1 0"/>
<feBlend mode="hard-light" in2="shape" result="effect1_innerShadow_1142_1589"/>
</filter>
</defs>
</svg>
