<svg width="10" height="10" viewBox="0 0 10 10" fill="none" xmlns="http://www.w3.org/2000/svg">
<g filter="url(#filter0_i_1731_336)">
<path d="M2.26483 2.92681C2.41401 2.64339 2.48859 2.50167 2.59416 2.39536C2.71018 2.27854 2.85324 2.19216 3.01066 2.14391C3.15391 2.1 3.31405 2.1 3.63434 2.1H6.36265C6.66621 2.1 6.81799 2.1 6.95443 2.13957C7.12022 2.18764 7.27074 2.27782 7.39135 2.40131C7.49061 2.50295 7.56222 2.63677 7.70543 2.90442L8.37828 4.16188C8.57751 4.53422 8.33002 4.98877 7.90917 5.02348C7.72717 5.03849 7.58687 5.19016 7.58605 5.37276L7.57974 6.78692C7.57779 7.22351 7.57682 7.4418 7.46768 7.59625C7.42777 7.65274 7.37839 7.7019 7.32172 7.74156C7.16679 7.85 6.9461 7.85 6.50472 7.85C6.22068 7.85 6.07866 7.85 5.97777 7.78259C5.93409 7.75341 5.89659 7.71591 5.86741 7.67223C5.8 7.57134 5.8 7.4309 5.8 7.15V6.55C5.8 6.10818 5.44182 5.75 5 5.75C4.55817 5.75 4.2 6.10818 4.2 6.55V7.15C4.2 7.4309 4.2 7.57134 4.13258 7.67223C4.1034 7.71591 4.0659 7.75341 4.02222 7.78259C3.92133 7.85 3.78089 7.85 3.5 7.85H3.48C3.03003 7.85 2.80505 7.85 2.64733 7.73542C2.59639 7.69841 2.55159 7.65361 2.51459 7.60268C2.4 7.44496 2.4 7.21997 2.4 6.77001V5.39829C2.4 5.21457 2.26119 5.06055 2.07845 5.04151C1.65773 4.99769 1.41434 4.54276 1.61135 4.16844L2.26483 2.92681Z" fill="white"/>
</g>
<defs>
<filter id="filter0_i_1731_336" x="0" y="0" width="10" height="10" filterUnits="userSpaceOnUse" color-interpolation-filters="sRGB">
<feFlood flood-opacity="0" result="BackgroundImageFix"/>
<feBlend mode="normal" in="SourceGraphic" in2="BackgroundImageFix" result="shape"/>
<feColorMatrix in="SourceAlpha" type="matrix" values="0 0 0 0 0 0 0 0 0 0 0 0 0 0 0 0 0 0 127 0" result="hardAlpha"/>
<feOffset/>
<feGaussianBlur stdDeviation="1"/>
<feComposite in2="hardAlpha" operator="arithmetic" k2="-1" k3="1"/>
<feColorMatrix type="matrix" values="0 0 0 0 0.942 0 0 0 0 0.94 0 0 0 0 1 0 0 0 0.1 0"/>
<feBlend mode="hard-light" in2="shape" result="effect1_innerShadow_1731_336"/>
</filter>
</defs>
</svg>
