<svg width="10" height="10" viewBox="0 0 10 10" fill="none" xmlns="http://www.w3.org/2000/svg">
<g filter="url(#filter0_i_1649_1504)">
<path d="M5.07324 5.30566C5.17533 5.32498 5.23379 5.372 5.35059 5.46582C5.98023 5.97171 6.02046 6.70981 6.02051 6.83008C6.02044 7.01516 5.8344 7.75383 3.70996 7.75391C1.58552 7.75383 1.40047 7.01475 1.40039 6.83008C1.40043 6.70995 1.43993 5.97177 2.06934 5.46582C2.18604 5.37201 2.2446 5.32501 2.34668 5.30566C2.36088 5.30299 2.37622 5.30096 2.39062 5.2998C2.49422 5.29166 2.61836 5.34542 2.86523 5.45312C3.12406 5.566 3.40957 5.62886 3.70996 5.62891C4.01028 5.62886 4.296 5.56601 4.55469 5.45312C4.80134 5.34548 4.92478 5.29177 5.02832 5.2998C5.04297 5.30095 5.0588 5.30294 5.07324 5.30566ZM7.62402 5.2959C7.72582 5.31526 7.78482 5.36243 7.90137 5.45605C8.5307 5.96193 8.57026 6.70006 8.57031 6.82031C8.57014 6.96176 8.46222 7.42273 7.46875 7.63379C7.36329 7.65618 7.30997 7.66796 7.2959 7.66992C6.9806 7.7137 6.86433 7.61943 6.8418 7.30176C6.84079 7.2874 6.84076 7.13161 6.84082 6.82031L6.83691 6.70703C6.8289 6.58434 6.8063 6.39356 6.74414 6.16992C6.71116 6.05135 6.69479 5.99118 6.69336 5.98535C6.62931 5.72478 6.66751 5.64305 6.91016 5.52832C6.91558 5.52576 6.97913 5.4985 7.10547 5.44336C7.35182 5.33584 7.47563 5.28207 7.5791 5.29004C7.59358 5.29119 7.60974 5.29321 7.62402 5.2959ZM3.70996 2.2002C4.42439 2.20021 5.00391 2.77968 5.00391 3.49414C5.00365 4.20839 4.42423 4.7871 3.70996 4.78711C2.99568 4.78711 2.41627 4.20839 2.41602 3.49414C2.41602 2.77967 2.99553 2.2002 3.70996 2.2002ZM6.25977 2.2002C6.9742 2.2002 7.55371 2.77967 7.55371 3.49414C7.55346 4.20839 6.97404 4.78711 6.25977 4.78711C6.19777 4.78707 6.13676 4.78293 6.07715 4.77441C5.97006 4.75911 5.91641 4.75083 5.83398 4.68848C5.76953 4.63968 5.70741 4.5461 5.6875 4.46777C5.66223 4.36772 5.69369 4.24725 5.75684 4.00684C5.80064 3.84007 5.82416 3.66495 5.82422 3.48438C5.82422 3.30888 5.80278 3.13828 5.76172 2.97559C5.7007 2.73382 5.66979 2.6127 5.69629 2.5127C5.71708 2.43446 5.78065 2.34205 5.8457 2.29395C5.92879 2.23254 5.98258 2.22502 6.08984 2.21094C6.14545 2.20365 6.20219 2.20023 6.25977 2.2002ZM4.99512 3.75C4.99476 3.75169 4.99342 3.75171 4.99316 3.75V3.74902C4.99727 3.72951 5.00267 3.71027 5.00586 3.69043C5.00258 3.71045 4.99928 3.73031 4.99512 3.75ZM5.01758 3.61621C5.01582 3.63329 5.01122 3.65012 5.00879 3.66699C5.01721 3.60728 5.02336 3.54631 5.02344 3.48438H5.02441C5.02439 3.52879 5.02197 3.57295 5.01758 3.61621Z" fill="white"/>
</g>
<defs>
<filter id="filter0_i_1649_1504" x="0" y="0" width="10" height="10" filterUnits="userSpaceOnUse" color-interpolation-filters="sRGB">
<feFlood flood-opacity="0" result="BackgroundImageFix"/>
<feBlend mode="normal" in="SourceGraphic" in2="BackgroundImageFix" result="shape"/>
<feColorMatrix in="SourceAlpha" type="matrix" values="0 0 0 0 0 0 0 0 0 0 0 0 0 0 0 0 0 0 127 0" result="hardAlpha"/>
<feOffset/>
<feGaussianBlur stdDeviation="1"/>
<feComposite in2="hardAlpha" operator="arithmetic" k2="-1" k3="1"/>
<feColorMatrix type="matrix" values="0 0 0 0 0.942 0 0 0 0 0.94 0 0 0 0 1 0 0 0 0.1 0"/>
<feBlend mode="hard-light" in2="shape" result="effect1_innerShadow_1649_1504"/>
</filter>
</defs>
</svg>
