<svg width="10" height="10" viewBox="0 0 10 10" fill="none" xmlns="http://www.w3.org/2000/svg">
<g filter="url(#filter0_i_1079_294)">
<path d="M6.18018 2.7998C6.85675 2.7998 7.19504 2.80054 7.41943 2.99219C7.45125 3.01937 7.48112 3.04923 7.5083 3.08105C7.69974 3.30548 7.69971 3.64383 7.69971 4.32031V5.68066C7.69971 6.35711 7.69993 6.69555 7.5083 6.91992C7.4811 6.95177 7.45128 6.98159 7.41943 7.00879C7.19504 7.20031 6.8566 7.2002 6.18018 7.2002H3.81982C3.14338 7.2002 2.80498 7.20023 2.58057 7.00879C2.54875 6.98162 2.51888 6.95173 2.4917 6.91992C2.30007 6.69555 2.30029 6.35711 2.30029 5.68066V4.32031C2.30029 3.64374 2.30018 3.30548 2.4917 3.08105C2.51891 3.0492 2.54871 3.0194 2.58057 2.99219C2.80498 2.80052 3.14312 2.7998 3.81982 2.7998H6.18018ZM4.49951 4.5C4.14562 4.50021 3.79903 4.79379 3.50928 5.15039C3.15763 5.58317 2.98183 5.8002 3.07178 6.0625C3.08255 6.0938 3.10309 6.13587 3.12061 6.16406C3.26736 6.39976 3.58334 6.40039 4.21533 6.40039H5.4165C6.11826 6.40039 6.46933 6.39995 6.57959 6.17773C6.59329 6.15008 6.60527 6.11509 6.61182 6.08496C6.66441 5.84262 6.40459 5.63475 5.88428 5.21875C5.40096 4.83233 4.87568 4.5 4.49951 4.5ZM6.49951 3.40039C6.16839 3.4006 5.90001 3.66885 5.8999 4C5.8999 4.33124 6.16832 4.60038 6.49951 4.60059C6.83088 4.60059 7.1001 4.33137 7.1001 4C7.09999 3.66872 6.83082 3.40039 6.49951 3.40039Z" fill="white"/>
</g>
<defs>
<filter id="filter0_i_1079_294" x="0" y="0" width="10" height="10" filterUnits="userSpaceOnUse" color-interpolation-filters="sRGB">
<feFlood flood-opacity="0" result="BackgroundImageFix"/>
<feBlend mode="normal" in="SourceGraphic" in2="BackgroundImageFix" result="shape"/>
<feColorMatrix in="SourceAlpha" type="matrix" values="0 0 0 0 0 0 0 0 0 0 0 0 0 0 0 0 0 0 127 0" result="hardAlpha"/>
<feOffset/>
<feGaussianBlur stdDeviation="1"/>
<feComposite in2="hardAlpha" operator="arithmetic" k2="-1" k3="1"/>
<feColorMatrix type="matrix" values="0 0 0 0 0.942 0 0 0 0 0.94 0 0 0 0 1 0 0 0 0.1 0"/>
<feBlend mode="hard-light" in2="shape" result="effect1_innerShadow_1079_294"/>
</filter>
</defs>
</svg>
