<svg width="10" height="10" viewBox="0 0 10 10" fill="none" xmlns="http://www.w3.org/2000/svg">
<g filter="url(#filter0_i_1134_3121)">
<path d="M4.5 6.75C4.5 7.26541 4.5 7.52311 4.37089 7.70507C4.32534 7.76928 4.26928 7.82534 4.20507 7.87089C4.02311 8 3.76541 8 3.25 8C2.73459 8 2.47689 8 2.29493 7.87089C2.23072 7.82534 2.17466 7.76928 2.12911 7.70507C2 7.52311 2 7.26541 2 6.75C2 6.23459 2 5.97689 2.12911 5.79493C2.17466 5.73072 2.23072 5.67466 2.29493 5.62911C2.47689 5.5 2.73459 5.5 3.25 5.5C3.76541 5.5 4.02311 5.5 4.20507 5.62911C4.26928 5.67466 4.32534 5.73072 4.37089 5.79493C4.5 5.97689 4.5 6.23459 4.5 6.75ZM8 6.75C8 7.26541 8 7.52311 7.87089 7.70507C7.82534 7.76928 7.76928 7.82534 7.70507 7.87089C7.52311 8 7.26541 8 6.75 8C6.23459 8 5.97689 8 5.79493 7.87089C5.73072 7.82534 5.67466 7.76928 5.62911 7.70507C5.5 7.52311 5.5 7.26541 5.5 6.75C5.5 6.23459 5.5 5.97689 5.62911 5.79493C5.67466 5.73072 5.73072 5.67466 5.79493 5.62911C5.97689 5.5 6.23459 5.5 6.75 5.5C7.26541 5.5 7.52311 5.5 7.70507 5.62911C7.76928 5.67466 7.82534 5.73072 7.87089 5.79493C8 5.97689 8 6.23459 8 6.75ZM4.5 3.25C4.5 3.76541 4.5 4.02311 4.37089 4.20507C4.32534 4.26928 4.26928 4.32534 4.20507 4.37089C4.02311 4.5 3.76541 4.5 3.25 4.5C2.73459 4.5 2.47689 4.5 2.29493 4.37089C2.23072 4.32534 2.17466 4.26928 2.12911 4.20507C2 4.02311 2 3.76541 2 3.25C2 2.73459 2 2.47689 2.12911 2.29493C2.17466 2.23072 2.23072 2.17466 2.29493 2.12911C2.47689 2 2.73459 2 3.25 2C3.76541 2 4.02311 2 4.20507 2.12911C4.26928 2.17466 4.32534 2.23072 4.37089 2.29493C4.5 2.47689 4.5 2.73459 4.5 3.25ZM8 3.25C8 3.76541 8 4.02311 7.87089 4.20507C7.82534 4.26928 7.76928 4.32534 7.70507 4.37089C7.52311 4.5 7.26541 4.5 6.75 4.5C6.23459 4.5 5.97689 4.5 5.79493 4.37089C5.73072 4.32534 5.67466 4.26928 5.62911 4.20507C5.5 4.02311 5.5 3.76541 5.5 3.25C5.5 2.73459 5.5 2.47689 5.62911 2.29493C5.67466 2.23072 5.73072 2.17466 5.79493 2.12911C5.97689 2 6.23459 2 6.75 2C7.26541 2 7.52311 2 7.70507 2.12911C7.76928 2.17466 7.82534 2.23072 7.87089 2.29493C8 2.47689 8 2.73459 8 3.25Z" fill="white"/>
</g>
<defs>
<filter id="filter0_i_1134_3121" x="0" y="0" width="10" height="10" filterUnits="userSpaceOnUse" color-interpolation-filters="sRGB">
<feFlood flood-opacity="0" result="BackgroundImageFix"/>
<feBlend mode="normal" in="SourceGraphic" in2="BackgroundImageFix" result="shape"/>
<feColorMatrix in="SourceAlpha" type="matrix" values="0 0 0 0 0 0 0 0 0 0 0 0 0 0 0 0 0 0 127 0" result="hardAlpha"/>
<feOffset/>
<feGaussianBlur stdDeviation="1"/>
<feComposite in2="hardAlpha" operator="arithmetic" k2="-1" k3="1"/>
<feColorMatrix type="matrix" values="0 0 0 0 0.942 0 0 0 0 0.94 0 0 0 0 1 0 0 0 0.1 0"/>
<feBlend mode="hard-light" in2="shape" result="effect1_innerShadow_1134_3121"/>
</filter>
</defs>
</svg>
