<svg width="10" height="10" viewBox="0 0 10 10" fill="none" xmlns="http://www.w3.org/2000/svg">
<g filter="url(#filter0_i_1134_3258)">
<path d="M2.73712 2.73713C3.63531 1.83912 5.09138 1.83907 5.98954 2.73713C6.55548 3.30307 6.76279 4.08961 6.61475 4.81908C6.55653 5.10598 6.52742 5.24943 6.54915 5.33696C6.55305 5.35269 6.55508 5.35943 6.56052 5.3747C6.59075 5.45967 6.66887 5.53779 6.82512 5.69404L7.26219 6.13111C7.57456 6.44347 7.57514 6.95046 7.26288 7.2629C6.95047 7.57531 6.44352 7.57462 6.1311 7.2622L5.69405 6.82515C5.5378 6.6689 5.45967 6.59078 5.3747 6.56054C5.35943 6.55511 5.35269 6.55308 5.33696 6.54917C5.24943 6.52745 5.10597 6.55656 4.81905 6.61479C4.0896 6.76284 3.30309 6.55552 2.73712 5.98955C1.83901 5.09134 1.83895 3.63531 2.73712 2.73713ZM3.41937 3.45253C2.91181 3.96022 2.91173 4.78309 3.41937 5.29073C3.92702 5.79829 4.74991 5.79826 5.25757 5.29073C5.76523 4.78308 5.76517 3.96022 5.25757 3.45253C4.74989 2.94485 3.92705 2.94485 3.41937 3.45253Z" fill="white"/>
</g>
<defs>
<filter id="filter0_i_1134_3258" x="0" y="0" width="10" height="10" filterUnits="userSpaceOnUse" color-interpolation-filters="sRGB">
<feFlood flood-opacity="0" result="BackgroundImageFix"/>
<feBlend mode="normal" in="SourceGraphic" in2="BackgroundImageFix" result="shape"/>
<feColorMatrix in="SourceAlpha" type="matrix" values="0 0 0 0 0 0 0 0 0 0 0 0 0 0 0 0 0 0 127 0" result="hardAlpha"/>
<feOffset/>
<feGaussianBlur stdDeviation="1"/>
<feComposite in2="hardAlpha" operator="arithmetic" k2="-1" k3="1"/>
<feColorMatrix type="matrix" values="0 0 0 0 0.942 0 0 0 0 0.94 0 0 0 0 1 0 0 0 0.1 0"/>
<feBlend mode="hard-light" in2="shape" result="effect1_innerShadow_1134_3258"/>
</filter>
</defs>
</svg>
