<svg width="10" height="10" viewBox="0 0 10 10" fill="none" xmlns="http://www.w3.org/2000/svg">
<g filter="url(#filter0_i_1079_83)">
<path d="M5.55999 2.56686C6.09912 1.95654 7.08673 2.52674 6.82774 3.2988C6.68511 3.72449 6.94771 4.17908 7.38776 4.26826C8.18565 4.43017 8.18546 5.57002 7.38742 5.73174C6.94735 5.82094 6.68466 6.27607 6.82737 6.70179C7.08634 7.47379 6.09928 8.04394 5.56013 7.43382C5.26292 7.09737 4.73791 7.09735 4.44053 7.43356C3.90141 8.04388 2.9138 7.47368 3.17279 6.70163C3.31531 6.27607 3.05258 5.82149 2.61277 5.73216C1.8147 5.57043 1.8143 4.43005 2.61226 4.2682C3.0524 4.179 3.31514 3.72392 3.17232 3.29815C2.91367 2.52623 3.90134 1.95636 4.4404 2.5666C4.73771 2.90293 5.26272 2.90324 5.55999 2.56686ZM5.59969 3.96099C5.02577 3.62978 4.29153 3.82641 3.9602 4.40029C3.62913 4.97413 3.8263 5.70758 4.39999 6.03894C4.97383 6.37025 5.70753 6.17418 6.039 5.60049C6.37037 5.02654 6.17365 4.29236 5.59969 3.96099Z" fill="white"/>
</g>
<defs>
<filter id="filter0_i_1079_83" x="0" y="0" width="10" height="10" filterUnits="userSpaceOnUse" color-interpolation-filters="sRGB">
<feFlood flood-opacity="0" result="BackgroundImageFix"/>
<feBlend mode="normal" in="SourceGraphic" in2="BackgroundImageFix" result="shape"/>
<feColorMatrix in="SourceAlpha" type="matrix" values="0 0 0 0 0 0 0 0 0 0 0 0 0 0 0 0 0 0 127 0" result="hardAlpha"/>
<feOffset/>
<feGaussianBlur stdDeviation="1"/>
<feComposite in2="hardAlpha" operator="arithmetic" k2="-1" k3="1"/>
<feColorMatrix type="matrix" values="0 0 0 0 0.942 0 0 0 0 0.94 0 0 0 0 1 0 0 0 0.1 0"/>
<feBlend mode="hard-light" in2="shape" result="effect1_innerShadow_1079_83"/>
</filter>
</defs>
</svg>
