<svg width="10" height="10" viewBox="0 0 10 10" fill="none" xmlns="http://www.w3.org/2000/svg">
<g filter="url(#filter0_i_1188_5228)">
<path d="M6.19971 3C7.30428 3 8.19971 3.89543 8.19971 5C8.1995 6.10439 7.30415 7 6.19971 7H3.80029C2.69585 7 1.8005 6.10439 1.80029 5C1.80029 3.89543 2.69572 3 3.80029 3H6.19971ZM3.99951 3.69922C3.2817 3.6994 2.69971 4.28214 2.69971 5C2.69993 5.71767 3.28184 6.29962 3.99951 6.2998C4.71734 6.2998 5.30007 5.71778 5.30029 5C5.30029 4.28203 4.71748 3.69922 3.99951 3.69922Z" fill="white"/>
</g>
<defs>
<filter id="filter0_i_1188_5228" x="0" y="0" width="10" height="10" filterUnits="userSpaceOnUse" color-interpolation-filters="sRGB">
<feFlood flood-opacity="0" result="BackgroundImageFix"/>
<feBlend mode="normal" in="SourceGraphic" in2="BackgroundImageFix" result="shape"/>
<feColorMatrix in="SourceAlpha" type="matrix" values="0 0 0 0 0 0 0 0 0 0 0 0 0 0 0 0 0 0 127 0" result="hardAlpha"/>
<feOffset/>
<feGaussianBlur stdDeviation="1"/>
<feComposite in2="hardAlpha" operator="arithmetic" k2="-1" k3="1"/>
<feColorMatrix type="matrix" values="0 0 0 0 0.942 0 0 0 0 0.94 0 0 0 0 1 0 0 0 0.1 0"/>
<feBlend mode="hard-light" in2="shape" result="effect1_innerShadow_1188_5228"/>
</filter>
</defs>
</svg>
