<svg width="10" height="10" viewBox="0 0 10 10" fill="none" xmlns="http://www.w3.org/2000/svg">
<g filter="url(#filter0_i_1162_475)">
<path d="M7.26025 3.7998C7.76752 3.7998 8.02167 3.79965 8.18994 3.94336C8.21372 3.96371 8.23602 3.98695 8.25635 4.01074C8.39953 4.17906 8.3999 4.43353 8.3999 4.94043V6.48047C8.3999 7.1565 8.40001 7.49541 8.2085 7.71973C8.18135 7.75148 8.1514 7.78146 8.11963 7.80859C7.8952 8.00006 7.55591 8 6.87939 8H3.11963C2.44344 8 2.10478 7.99987 1.88037 7.80859C1.84863 7.78149 1.81863 7.75145 1.7915 7.71973C1.59992 7.49541 1.6001 7.15659 1.6001 6.48047V4.94043C1.6001 4.43334 1.6003 4.17906 1.74365 4.01074C1.764 3.98692 1.78625 3.96372 1.81006 3.94336C1.97837 3.79974 2.23237 3.7998 2.73975 3.7998H7.26025ZM3.3501 4.59961C2.92712 4.59961 2.71497 4.59895 2.57471 4.71875C2.55501 4.73561 2.53688 4.75471 2.52002 4.77441C2.40046 4.91468 2.3999 5.12712 2.3999 5.5498V6.24902C2.3999 6.67167 2.40027 6.8842 2.52002 7.02441C2.53674 7.04392 2.55519 7.06239 2.57471 7.0791C2.71497 7.19869 2.92737 7.19922 3.3501 7.19922H3.8501C4.27268 7.19922 4.48427 7.19867 4.62451 7.0791C4.64422 7.06225 4.66331 7.04411 4.68018 7.02441C4.79993 6.8842 4.80029 6.67167 4.80029 6.24902V5.5498C4.80029 5.12712 4.79973 4.91468 4.68018 4.77441C4.66325 4.7546 4.64432 4.73569 4.62451 4.71875C4.48427 4.59917 4.27269 4.59961 3.8501 4.59961H3.3501ZM5.8999 6.19922C5.67899 6.19922 5.49951 6.3787 5.49951 6.59961C5.49988 6.82021 5.67922 6.99902 5.8999 6.99902H6.49951C6.7202 6.99902 6.89953 6.82021 6.8999 6.59961C6.8999 6.3787 6.72043 6.19922 6.49951 6.19922H5.8999ZM5.8999 4.7998C5.67907 4.7998 5.49964 4.97842 5.49951 5.19922C5.49978 5.41991 5.67915 5.59961 5.8999 5.59961H7.19971C7.42046 5.59961 7.59983 5.41991 7.6001 5.19922C7.59997 4.97842 7.42054 4.7998 7.19971 4.7998H5.8999ZM7.8999 2C8.17604 2 8.3999 2.22386 8.3999 2.5C8.3999 2.77614 8.17604 3 7.8999 3H2.1001C1.82396 3 1.6001 2.77614 1.6001 2.5C1.6001 2.22386 1.82396 2 2.1001 2H7.8999Z" fill="white"/>
</g>
<defs>
<filter id="filter0_i_1162_475" x="0" y="0" width="10" height="10" filterUnits="userSpaceOnUse" color-interpolation-filters="sRGB">
<feFlood flood-opacity="0" result="BackgroundImageFix"/>
<feBlend mode="normal" in="SourceGraphic" in2="BackgroundImageFix" result="shape"/>
<feColorMatrix in="SourceAlpha" type="matrix" values="0 0 0 0 0 0 0 0 0 0 0 0 0 0 0 0 0 0 127 0" result="hardAlpha"/>
<feOffset/>
<feGaussianBlur stdDeviation="1"/>
<feComposite in2="hardAlpha" operator="arithmetic" k2="-1" k3="1"/>
<feColorMatrix type="matrix" values="0 0 0 0 0.942 0 0 0 0 0.94 0 0 0 0 1 0 0 0 0.1 0"/>
<feBlend mode="hard-light" in2="shape" result="effect1_innerShadow_1162_475"/>
</filter>
</defs>
</svg>
